<svg xmlns="http://www.w3.org/2000/svg" width="80" height="80" viewBox="0 0 80 80">
  <g id="Layer_2" data-name="Layer 2" transform="translate(-6.6)">
    <path id="Rectangle_27" d="M21.6,0h50a14.98,14.98,0,0,1,15,15V65a14.98,14.98,0,0,1-15,15h-50a14.98,14.98,0,0,1-15-15V15A14.98,14.98,0,0,1,21.6,0Z" fill="#fff"/>
    <g id="Group_41" data-name="Group 41">
      <path id="Path_134" data-name="Path 134" d="M34.8,37.3c.8-.4,1.6-.7,2.5-1.1l-7-9.5H14.4l11,15C28.4,40.2,31.6,38.8,34.8,37.3Z" fill="#61259f"/>
      <path id="Path_135" data-name="Path 135" d="M27.1,44.1l3.3,4.5a12.078,12.078,0,0,0,9.7,4.9h9.8L39,38.6C35,40.4,31,42.2,27.1,44.1Z" fill="#61259f"/>
      <path id="Path_136" data-name="Path 136" d="M56.9,36.6V32.9h-.4a3.565,3.565,0,0,0-3.6,3.5V53.5h3.9V41.4a28.889,28.889,0,0,1,22.9-8.6c-1.1-.3-2.3-.6-3.4-.8A26.845,26.845,0,0,0,56.9,36.6Z" fill="#61259f"/>
      <g id="Group_40" data-name="Group 40">
        <path id="Path_137" data-name="Path 137" d="M41.5,35C27,40.6,14.8,48.2,6.6,55.9v.7C15.7,49,29.7,41.7,43.9,36.2,59.8,30.1,75,27,86.6,27.6v-.4C74.7,25.9,58.4,28.4,41.5,35Z" fill="#61259f"/>
      </g>
    </g>
  </g>
</svg>
