<svg width="1188" height="221" viewBox="0 0 1188 221" fill="none" xmlns="http://www.w3.org/2000/svg">
<path d="M79.28 10.16C78.96 9.67999 78.48 8.95999 77.84 7.99999C77.36 6.87999 77.28 6.15999 77.6 5.83999C77.92 5.51999 78.4 5.59999 79.04 6.07999C79.84 6.55999 80.32 6.87999 80.48 7.03999C83.36 9.11999 86 12 88.4 15.68C90.96 19.36 93.2 23.44 95.12 27.92C97.2 32.24 99.04 36.8 100.64 41.6C102.24 46.4 103.52 50.96 104.48 55.28C106.88 65.84 108.88 76.24 110.48 86.48C112.24 96.72 113.12 107.28 113.12 118.16C113.12 118.48 113.12 119.44 113.12 121.04C113.28 122.64 113.04 123.6 112.4 123.92C111.92 123.6 111.36 122.8 110.72 121.52C110.24 120.24 109.92 119.36 109.76 118.88C107.84 112.96 106.08 106.24 104.48 98.72C103.04 91.04 101.68 84.08 100.4 77.84C99.44 73.04 98.56 68.48 97.76 64.16C96.96 59.68 96 55.36 94.88 51.2C93.92 47.04 92.72 42.88 91.28 38.72C90 34.4 88.4 29.92 86.48 25.28C86.16 24.64 85.6 23.52 84.8 21.92C84.16 20.32 83.44 18.72 82.64 17.12C81.84 15.52 81.12 14.08 80.48 12.8C79.84 11.36 79.44 10.48 79.28 10.16ZM136.88 188C135.12 187.04 133.92 186.4 133.28 186.08C132.64 185.92 131.44 185.28 129.68 184.16C125.84 181.92 122.32 179.04 119.12 175.52C115.92 171.84 113.04 167.84 110.48 163.52C107.92 159.2 105.6 154.64 103.52 149.84C101.6 144.88 99.92 140 98.48 135.2C95.28 137.28 91.44 138.56 86.96 139.04C82.64 139.36 78.64 139.52 74.96 139.52C70.32 139.52 65.68 139.36 61.04 139.04C56.56 138.72 52 138.56 47.36 138.56C42.88 146.88 38.64 154.96 34.64 162.8C30.8 170.48 27.76 177.68 25.52 184.4C25.52 184.56 25.44 184.88 25.28 185.36C25.12 186 24.88 186.32 24.56 186.32C24.08 186.32 23.84 185.76 23.84 184.64C23.84 183.52 23.84 182.8 23.84 182.48C23.84 176.08 25.36 168.96 28.4 161.12C31.6 153.12 35.12 145.28 38.96 137.6L35.36 137.36C34.4 139.6 33.04 142.72 31.28 146.72C29.68 150.72 28.08 154.88 26.48 159.2C25.04 163.52 23.68 167.68 22.4 171.68C21.28 175.68 20.72 178.88 20.72 181.28C20.72 181.76 20.48 182 20 182C19.36 182 18.88 181.52 18.56 180.56C18.24 179.44 17.92 178.24 17.6 176.96C17.44 175.68 17.28 174.4 17.12 173.12C17.12 171.68 17.12 170.72 17.12 170.24C17.12 164.64 17.84 158.8 19.28 152.72C20.72 146.48 22.64 140.8 25.04 135.68L21.92 135.2C20.48 138.72 19.12 142.24 17.84 145.76C16.56 149.12 15.44 152.64 14.48 156.32C14.48 156.64 14.4 157.04 14.24 157.52C14.08 158 13.84 158.16 13.52 158C13.2 157.36 12.96 156.64 12.8 155.84C12.8 154.88 12.8 154.08 12.8 153.44C12.8 146.72 14 140.24 16.4 134C17.2 132.4 18 131.6 18.8 131.6C22.16 130.64 25.52 130.08 28.88 129.92C32.4 129.76 36 129.68 39.68 129.68C47.68 129.68 55.6 130.32 63.44 131.6C71.28 132.72 79.12 133.28 86.96 133.28C90.8 133.28 94.32 132.96 97.52 132.32L97.04 128.48C95.28 128.96 93.36 129.28 91.28 129.44C89.36 129.6 87.52 129.68 85.76 129.68C79.52 129.68 73.04 129.04 66.32 127.76C59.76 126.48 53.44 124.96 47.36 123.2C47.04 122.88 46.4 122.64 45.44 122.48C44.48 122.16 44 121.76 44 121.28C44 120.96 44.48 120.72 45.44 120.56C46.4 120.24 47.04 120.08 47.36 120.08C49.6 119.92 51.76 119.84 53.84 119.84C56.08 119.68 58.32 119.6 60.56 119.6C64.24 119.6 67.92 119.68 71.6 119.84C75.28 119.84 79.04 119.84 82.88 119.84C84.8 119.84 86.8 119.84 88.88 119.84C90.96 119.84 92.96 119.76 94.88 119.6L94.4 116.96H91.28C83.6 116.96 75.92 116.24 68.24 114.8C60.72 113.36 53.12 112.64 45.44 112.64C38.88 112.64 33.04 113.44 27.92 115.04C22.96 116.64 18.64 118.48 14.96 120.56C11.44 122.64 8.56 124.72 6.32 126.8C4.08 128.88 2.48 130.4 1.52 131.36C1.2 131.52 1.04 131.6 1.04 131.6C0.88 131.6 0.8 131.44 0.8 131.12C0.8 130.96 0.88 130.8 1.04 130.64C3.92 125.04 7.44 120.4 11.6 116.72C15.76 112.88 20.88 110 26.96 108.08C33.04 95.12 39.28 82.24 45.68 69.44C52.24 56.64 59.12 44 66.32 31.52C66.48 31.2 66.8 30.72 67.28 30.08C67.76 29.28 68.24 28.88 68.72 28.88C68.88 29.04 68.96 29.2 68.96 29.36V29.84C68.96 31.12 68.88 32.08 68.72 32.72C65.68 45.68 61.2 58.16 55.28 70.16C49.36 82.16 43.28 94 37.04 105.68L41.6 105.44C42.08 104.48 43.28 102.4 45.2 99.2C47.28 96 49.44 92.72 51.68 89.36C54.08 85.84 56.24 82.72 58.16 80C60.08 77.12 61.28 75.68 61.76 75.68L62 76.4C62 77.2 61.52 78.96 60.56 81.68C59.6 84.4 58.48 87.36 57.2 90.56C55.92 93.76 54.64 96.8 53.36 99.68C52.24 102.4 51.44 104.32 50.96 105.44C51.92 105.44 52.88 105.52 53.84 105.68C54.8 105.68 55.76 105.68 56.72 105.68C59.6 99.92 62.64 93.92 65.84 87.68C69.2 81.28 72.08 74.8 74.48 68.24C76.88 61.68 78.48 55.04 79.28 48.32C80.24 41.6 79.76 34.96 77.84 28.4C77.84 29.2 77.6 30.8 77.12 33.2C76.8 35.6 76.32 38.16 75.68 40.88C75.04 43.44 74.4 45.76 73.76 47.84C73.12 49.76 72.48 50.72 71.84 50.72C71.36 50.72 71.12 50.4 71.12 49.76C71.28 49.12 71.36 48.72 71.36 48.56C71.36 44.4 71.6 40.32 72.08 36.32C72.72 32.16 73.04 28 73.04 23.84C73.04 18.24 72.16 12.8 70.4 7.51999C70.4 7.35999 70.16 6.71999 69.68 5.6C69.2 4.31999 69.36 3.67999 70.16 3.67999C70.48 3.67999 71.04 4.07999 71.84 4.87999C73.44 6.47999 74.96 8.63999 76.4 11.36C78 14.08 79.44 17.04 80.72 20.24C82 23.28 83.2 26.32 84.32 29.36C85.44 32.4 86.32 34.96 86.96 37.04C89.04 43.92 90.72 50.88 92 57.92C93.44 64.8 94.64 71.76 95.6 78.8C96.72 85.68 97.84 92.64 98.96 99.68C100.08 106.72 101.36 113.68 102.8 120.56C104.24 127.28 105.92 133.84 107.84 140.24C109.92 146.64 112.4 152.72 115.28 158.48C118.16 164.24 121.44 169.6 125.12 174.56C128.96 179.36 133.36 183.6 138.32 187.28C139.12 188.08 139.36 188.56 139.04 188.72C138.88 189.04 138.16 188.8 136.88 188ZM136.4 167.6C136.56 168.56 136.48 169.04 136.16 169.04C135.84 168.88 135.44 168.56 134.96 168.08C134.64 167.6 134.24 167.04 133.76 166.4C133.44 165.76 133.28 165.36 133.28 165.2C129.44 158.16 126.4 151.04 124.16 143.84C121.92 136.48 120.16 129.12 118.88 121.76C117.6 114.24 116.48 106.72 115.52 99.2C114.72 91.52 113.68 83.76 112.4 75.92C111.28 67.92 109.76 59.84 107.84 51.68C105.92 43.52 103.2 35.2 99.68 26.72C99.52 26.4 99.28 25.84 98.96 25.04C98.64 24.24 98.64 23.76 98.96 23.6C99.28 23.6 99.68 23.84 100.16 24.32L101.12 25.28C104.64 29.44 107.76 34.96 110.48 41.84C113.2 48.72 115.6 56.08 117.68 63.92C119.76 71.76 121.44 79.52 122.72 87.2C124.16 94.88 125.28 101.6 126.08 107.36C127.36 116.48 128.72 126.08 130.16 136.16C131.6 146.24 133.44 155.76 135.68 164.72L136.4 167.6ZM65.12 106.64C69.76 107.12 74.32 107.68 78.8 108.32C83.44 108.96 88.08 109.44 92.72 109.76C90.96 101.28 89.44 92.88 88.16 84.56C86.88 76.24 85.68 67.76 84.56 59.12C82.48 67.44 79.6 75.52 75.92 83.36C72.4 91.2 68.8 98.96 65.12 106.64ZM144.08 185.36C140.88 183.92 138.08 182.56 135.68 181.28C133.28 179.84 131.2 177.92 129.44 175.52C126.72 171.84 124.56 168.16 122.96 164.48C121.52 160.8 120.32 157.36 119.36 154.16C119.04 152.88 118.72 151.44 118.4 149.84C118.24 148.24 118.32 147.44 118.64 147.44C119.28 147.44 120.08 148.48 121.04 150.56C122 152.64 122.88 154.4 123.68 155.84C126.08 160.8 129.12 165.84 132.8 170.96C136.48 175.92 140.48 180 144.8 183.2C146.08 184.32 146.48 185.04 146 185.36C145.52 185.68 144.88 185.68 144.08 185.36ZM2.24 139.28C2.24 139.28 2.08 139.28 1.76 139.28H1.52C1.52 138.8 1.6 138.32 1.76 137.84C1.92 137.36 2.08 136.88 2.24 136.4C3.52 133.68 4.72 131.68 5.84 130.4C7.12 128.96 9.12 127.44 11.84 125.84C13.44 124.88 15.68 123.92 18.56 122.96C21.44 122 23.76 121.52 25.52 121.52C25.84 121.52 26.24 121.6 26.72 121.76C27.36 121.76 27.68 122 27.68 122.48C27.68 122.96 26.8 123.6 25.04 124.4C23.44 125.2 22.4 125.76 21.92 126.08C15.84 129.76 11.36 132.56 8.48 134.48C5.6 136.4 3.52 138 2.24 139.28ZM216.828 12.32C220.028 12.32 223.708 12.96 227.868 14.24C232.028 15.36 235.388 17.28 237.948 20C239.708 21.6 239.468 22.08 237.228 21.44C234.988 21.12 232.668 20.64 230.268 20C228.028 19.2 225.548 18.8 222.828 18.8C212.908 18.64 205.708 21.52 201.228 27.44C196.748 33.2 194.188 40.56 193.548 49.52C193.068 55.76 193.148 62 193.788 68.24C194.588 74.32 195.468 80.4 196.428 86.48C197.388 92.56 198.188 98.64 198.828 104.72C199.628 110.8 199.708 116.96 199.068 123.2C198.908 124.96 198.668 126 198.348 126.32C198.188 126.64 197.948 126.56 197.628 126.08C197.468 125.6 197.228 124.96 196.908 124.16C196.748 123.2 196.588 122.4 196.428 121.76C195.468 115.36 194.268 108.96 192.828 102.56C191.388 96 190.028 89.44 188.748 82.88C187.468 76.32 186.428 69.76 185.628 63.2C184.988 56.64 184.988 50 185.628 43.28C186.108 38.96 187.148 34.96 188.748 31.28C190.348 27.44 192.428 24.16 194.988 21.44C197.708 18.56 200.908 16.32 204.588 14.72C208.268 13.12 212.348 12.32 216.828 12.32ZM174.108 44C174.588 39.68 175.708 35.36 177.468 31.04C179.228 26.56 181.548 22.56 184.428 19.04C187.468 15.36 191.068 12.48 195.228 10.4C199.548 8.15999 204.348 7.03999 209.628 7.03999C209.788 7.03999 210.188 7.11999 210.828 7.27999C211.628 7.27999 212.268 7.35999 212.748 7.51999C213.388 7.67999 213.628 7.84 213.468 7.99999C213.468 8.15999 212.908 8.31999 211.788 8.47999C207.468 9.27999 203.468 10.72 199.788 12.8C196.108 14.88 192.908 17.44 190.188 20.48C187.468 23.52 185.228 26.96 183.468 30.8C181.868 34.48 180.908 38.32 180.588 42.32C179.948 50 180.268 57.76 181.548 65.6C182.828 73.28 184.268 80.96 185.868 88.64C187.628 96.32 189.068 104.08 190.188 111.92C191.468 119.6 191.788 127.28 191.148 134.96C190.828 138 190.108 141.2 188.988 144.56C187.868 147.92 186.348 151.04 184.428 153.92C182.668 156.8 180.428 159.28 177.708 161.36C174.988 163.28 171.948 164.48 168.588 164.96C166.028 165.28 164.908 165.2 165.228 164.72C165.708 164.08 166.668 163.36 168.108 162.56C173.868 159.36 177.788 155.6 179.868 151.28C182.108 146.96 183.548 141.6 184.188 135.2C184.828 127.84 184.508 120.32 183.228 112.64C182.108 104.96 180.748 97.28 179.148 89.6C177.548 81.92 176.108 74.32 174.828 66.8C173.708 59.12 173.468 51.52 174.108 44ZM167.628 176.96C174.348 176.96 180.028 175.76 184.668 173.36C189.308 170.8 193.148 167.52 196.188 163.52C199.228 159.36 201.548 154.64 203.148 149.36C204.748 143.92 205.788 138.32 206.268 132.56C206.908 125.36 206.748 118.16 205.788 110.96C204.828 103.76 203.708 96.64 202.428 89.6C201.308 82.4 200.268 75.2 199.308 68C198.348 60.8 198.188 53.52 198.828 46.16C199.468 38.8 201.708 32.96 205.548 28.64C209.548 24.32 215.468 22.16 223.308 22.16C226.028 22.16 229.468 22.64 233.628 23.6C237.948 24.56 241.468 25.92 244.188 27.68C247.068 29.6 246.828 30.16 243.468 29.36C241.548 28.88 239.068 28.32 236.028 27.68C232.988 27.04 230.668 26.72 229.068 26.72C222.828 26.72 217.468 28.08 212.988 30.8C208.508 33.52 205.948 38.32 205.308 45.2C204.508 52.56 204.668 59.92 205.788 67.28C206.908 74.48 208.188 81.76 209.628 89.12C211.068 96.48 212.268 103.84 213.228 111.2C214.348 118.56 214.588 125.92 213.948 133.28C213.468 139.36 212.268 145.28 210.348 151.04C208.428 156.8 205.708 162 202.188 166.64C198.668 171.28 194.268 175.04 188.988 177.92C183.868 180.64 177.788 182 170.748 182C168.828 182 166.348 181.68 163.308 181.04C160.268 180.4 157.228 179.6 154.188 178.64C151.148 177.52 148.268 176.24 145.548 174.8C142.988 173.2 141.068 171.52 139.788 169.76C138.348 168.16 138.828 167.76 141.228 168.56C143.948 170 147.228 171.76 151.068 173.84C155.068 175.92 160.588 176.96 167.628 176.96ZM166.188 168.56C170.188 168.56 173.868 167.92 177.228 166.64C180.588 165.36 184.028 163.68 187.548 161.6V162.32C187.548 163.76 186.748 165.2 185.148 166.64C183.708 167.92 181.868 169.12 179.628 170.24C177.388 171.36 174.828 172.24 171.948 172.88C169.228 173.52 166.428 173.84 163.548 173.84C162.428 173.84 160.908 173.68 158.988 173.36C157.068 172.88 155.068 172.32 152.988 171.68C151.068 170.88 149.228 170 147.468 169.04C145.708 168.08 144.508 166.96 143.868 165.68C142.108 163.76 141.548 162.72 142.188 162.56C142.828 162.24 143.708 162.48 144.828 163.28C147.388 164.08 150.268 165.2 153.468 166.64C156.828 167.92 161.068 168.56 166.188 168.56ZM411.474 27.44C411.314 29.36 410.834 32 410.034 35.36C409.394 38.72 408.594 42 407.634 45.2C406.834 48.4 405.954 51.2 404.994 53.6C404.194 55.84 403.474 56.8 402.834 56.48C402.674 56.32 402.594 55.84 402.594 55.04C402.594 54.24 402.594 53.36 402.594 52.4C402.754 51.28 402.834 50.24 402.834 49.28C402.994 48.32 403.154 47.6 403.314 47.12C403.474 46 403.714 44.48 404.034 42.56C404.354 40.64 404.594 38.72 404.754 36.8C405.074 34.72 405.314 32.8 405.474 31.04C405.794 29.12 406.034 27.52 406.194 26.24C406.514 23.2 406.674 20.32 406.674 17.6C406.674 14.88 406.514 12 406.194 8.96C406.194 8.63999 406.194 8.23999 406.194 7.76C406.354 7.27999 406.594 7.03999 406.914 7.03999C407.874 7.03999 408.514 7.67999 408.834 8.96C409.634 11.2 410.354 13.68 410.994 16.4C411.634 18.96 411.794 22.64 411.474 27.44ZM414.114 10.64C416.514 17.04 417.874 23.84 418.194 31.04C418.674 38.08 418.434 45.2 417.474 52.4C416.514 59.6 414.994 66.72 412.914 73.76C410.994 80.64 408.754 87.12 406.194 93.2C402.834 101.2 399.314 109.12 395.634 116.96C391.954 124.64 388.354 132.24 384.834 139.76C381.314 147.12 378.034 154.32 374.994 161.36C372.114 168.4 369.794 175.28 368.034 182C367.874 182.48 367.554 182.8 367.074 182.96C366.594 183.28 366.354 182.96 366.354 182C366.034 174.32 366.994 166.56 369.234 158.72C371.634 150.88 374.594 143.04 378.114 135.2C381.794 127.2 385.634 119.2 389.634 111.2C393.794 103.2 397.554 95.04 400.914 86.72C402.994 81.6 404.994 75.84 406.914 69.44C408.834 63.04 410.434 56.48 411.714 49.76C412.994 43.04 413.794 36.32 414.114 29.6C414.434 22.88 414.114 16.72 413.154 11.12C412.834 9.51999 412.914 8.95999 413.394 9.43999L413.634 9.67999C413.794 9.83999 413.874 10 413.874 10.16C413.874 10.32 413.954 10.48 414.114 10.64ZM335.154 34.64C334.994 36.56 334.594 38.88 333.954 41.6C333.474 44.16 332.914 46.64 332.274 49.04C331.634 51.28 330.914 53.2 330.114 54.8C329.474 56.4 328.834 57.04 328.194 56.72C328.034 56.72 327.954 56.32 327.954 55.52C327.954 54.72 327.954 53.84 327.954 52.88C328.114 51.76 328.194 50.72 328.194 49.76C328.354 48.8 328.514 48.08 328.674 47.6C329.634 42.96 330.194 38.08 330.354 32.96C330.674 30.08 330.754 27.44 330.594 25.04C330.594 22.48 330.354 19.68 329.874 16.64C329.874 16.32 329.714 15.68 329.394 14.72C329.234 13.6 329.394 13.04 329.874 13.04C330.194 13.04 330.674 13.52 331.314 14.48L332.274 15.92C332.914 17.36 333.474 18.72 333.954 20C334.434 21.28 334.754 22.56 334.914 23.84C335.234 25.12 335.394 26.64 335.394 28.4C335.394 30.16 335.314 32.24 335.154 34.64ZM395.394 79.04C395.874 79.36 395.954 80.16 395.634 81.44C395.314 82.72 395.154 83.6 395.154 84.08C394.514 86 393.714 88.32 392.754 91.04C391.954 93.6 390.994 96.32 389.874 99.2C388.914 101.92 387.874 104.56 386.754 107.12C385.794 109.68 384.834 111.84 383.874 113.6C383.394 114.56 382.514 116.48 381.234 119.36C380.114 122.08 378.834 125.44 377.394 129.44C375.954 133.28 374.434 137.52 372.834 142.16C371.234 146.64 369.794 151.04 368.514 155.36C367.234 159.68 366.114 163.68 365.154 167.36C364.194 170.88 363.714 173.68 363.714 175.76C363.714 176.56 363.554 177.12 363.234 177.44C363.074 177.6 362.914 177.6 362.754 177.44C362.594 177.44 362.194 177.12 361.554 176.48C360.754 175.36 359.634 174 358.194 172.4C356.754 170.64 355.474 168.88 354.354 167.12C353.394 165.52 352.434 163.44 351.474 160.88C350.514 158.16 349.634 155.52 348.834 152.96C348.034 150.24 347.474 147.92 347.154 146C346.834 144.08 346.914 142.96 347.394 142.64C347.554 142.64 347.874 143.04 348.354 143.84C348.834 144.48 349.314 145.28 349.794 146.24C350.274 147.2 350.674 148.16 350.994 149.12C351.474 149.92 351.794 150.48 351.954 150.8C353.074 152.88 354.034 154.96 354.834 157.04C355.794 158.96 356.674 160.96 357.474 163.04C358.274 165.12 359.154 166.96 360.114 168.56C361.074 170 361.634 170.64 361.794 170.48C361.954 170.48 362.034 170.08 362.034 169.28C362.034 168.32 361.954 167.28 361.794 166.16C361.794 165.04 361.714 164 361.554 163.04C361.554 161.92 361.554 161.12 361.554 160.64C361.234 154.56 361.554 149.04 362.514 144.08C363.634 139.12 365.074 134.64 366.834 130.64C370.354 122.48 374.354 114.24 378.834 105.92C383.474 97.44 388.034 89.6 392.514 82.4C392.834 82.08 393.314 81.44 393.954 80.48C394.754 79.52 395.234 79.04 395.394 79.04ZM361.794 182C356.034 179.12 351.074 175.12 346.914 170C342.914 164.72 339.554 159.12 336.834 153.2C334.114 147.12 331.954 140.96 330.354 134.72C328.754 128.48 327.634 122.72 326.994 117.44C326.674 115.04 326.434 112.72 326.274 110.48C326.114 108.08 326.034 106.48 326.034 105.68C323.154 112.4 320.114 119.12 316.914 125.84C313.714 132.56 310.674 139.2 307.794 145.76C304.914 152.16 302.274 158.48 299.874 164.72C297.474 170.8 295.554 176.56 294.114 182C293.954 182.64 293.634 183.2 293.154 183.68C292.674 183.68 292.434 183.12 292.434 182C292.274 174.32 293.314 166.64 295.554 158.96C297.794 151.28 300.594 143.52 303.954 135.68C307.474 127.68 311.234 119.68 315.234 111.68C319.234 103.52 322.914 95.28 326.274 86.96C328.354 81.84 330.194 76.48 331.794 70.88C333.554 65.12 334.994 59.36 336.114 53.6C337.234 47.68 337.874 41.76 338.034 35.84C338.194 29.76 337.794 23.92 336.834 18.32C336.674 17.52 336.514 17.04 336.354 16.88C336.194 16.56 336.274 16.4 336.594 16.4C337.074 16.4 337.474 16.8 337.794 17.6C339.394 21.92 340.514 26.24 341.154 30.56C341.954 34.72 342.514 38.96 342.834 43.28C344.754 46.8 346.354 51.28 347.634 56.72C348.914 62 350.034 67.52 350.994 73.28C352.114 79.04 352.994 84.72 353.634 90.32C354.434 95.92 355.234 100.8 356.034 104.96C356.834 108.64 357.394 112.48 357.714 116.48C358.194 120.48 358.594 124.32 358.914 128C360.034 123.52 361.394 118.96 362.994 114.32C364.754 109.68 366.514 105.2 368.274 100.88C370.034 96.4 371.714 92.24 373.314 88.4C374.914 84.56 376.354 81.2 377.634 78.32C379.074 74.8 380.754 70.88 382.674 66.56C384.594 62.24 386.514 58 388.434 53.84C390.514 49.68 392.514 45.76 394.434 42.08C396.514 38.24 398.354 35.04 399.954 32.48C400.754 31.36 401.394 30.48 401.874 29.84C402.514 29.04 402.994 28.72 403.314 28.88C403.634 29.2 403.634 29.76 403.314 30.56C403.154 31.2 402.914 31.92 402.594 32.72C400.994 38.48 399.074 44.56 396.834 50.96C394.594 57.2 392.194 63.52 389.634 69.92C387.074 76.32 384.434 82.64 381.714 88.88C379.154 95.12 376.594 101.04 374.034 106.64C371.314 112.88 368.434 119.2 365.394 125.6C362.354 132 360.194 139.04 358.914 146.72C358.594 148.48 358.194 149.6 357.714 150.08C357.394 150.4 356.834 149.2 356.034 146.48C352.034 131.44 349.154 116.4 347.394 101.36C345.634 86.16 343.634 70.88 341.394 55.52C340.914 60.16 340.514 64.08 340.194 67.28C339.874 70.48 339.874 74.32 340.194 78.8C340.514 84.56 340.914 90.32 341.394 96.08C341.874 101.68 342.194 106.96 342.354 111.92C342.354 112.4 342.274 113.44 342.114 115.04C342.114 116.64 341.874 117.44 341.394 117.44C341.234 117.6 341.074 117.52 340.914 117.2C340.754 116.72 340.514 116.16 340.194 115.52C340.034 114.88 339.794 114.32 339.474 113.84C339.314 113.2 339.234 112.72 339.234 112.4C338.434 109.2 337.554 105.28 336.594 100.64C335.634 96 334.754 91.44 333.954 86.96C332.674 90.96 331.874 95.04 331.554 99.2C331.234 103.2 331.554 108.08 332.514 113.84C333.634 119.92 335.074 126.16 336.834 132.56C338.594 138.8 340.674 144.88 343.074 150.8C345.634 156.72 348.514 162.32 351.714 167.6C354.914 172.88 358.514 177.44 362.514 181.28C362.994 181.6 363.154 181.84 362.994 182C362.834 182.32 362.434 182.32 361.794 182ZM326.994 36.08C327.314 36.4 327.314 36.96 326.994 37.76C326.674 38.56 326.434 39.28 326.274 39.92C325.154 45.68 323.554 51.44 321.474 57.2C319.554 62.8 317.394 68.4 314.994 74C312.594 79.44 310.034 84.96 307.314 90.56C304.754 96 302.194 101.52 299.634 107.12C296.914 113.2 294.114 119.44 291.234 125.84C288.514 132.24 286.434 139.36 284.994 147.2C284.674 148.8 284.354 149.84 284.034 150.32C283.714 150.8 283.154 149.6 282.354 146.72C279.314 135.84 276.914 124.72 275.154 113.36C273.554 101.84 272.114 90.16 270.834 78.32C270.034 70 268.914 61.52 267.474 52.88C266.034 44.08 263.954 35.04 261.234 25.76C261.074 24.8 261.074 24.24 261.234 24.08C261.394 23.92 261.634 24.08 261.954 24.56C262.274 24.88 262.594 25.2 262.914 25.52C264.834 27.76 266.594 30.96 268.194 35.12C269.794 39.12 271.234 43.6 272.514 48.56C273.794 53.36 274.914 58.48 275.874 63.92C276.834 69.36 277.714 74.64 278.514 79.76C279.314 84.88 279.954 89.68 280.434 94.16C281.074 98.64 281.714 102.4 282.354 105.44C282.994 109.12 283.474 112.96 283.794 116.96C284.274 120.8 284.674 124.64 284.994 128.48C286.114 124 287.474 119.52 289.074 115.04C290.834 110.4 292.594 105.92 294.354 101.6C296.274 97.28 298.034 93.2 299.634 89.36C301.394 85.52 302.834 82.24 303.954 79.52C306.994 72.16 310.274 64.88 313.794 57.68C317.474 50.48 320.994 44.32 324.354 39.2C324.834 38.4 325.314 37.68 325.794 37.04C326.274 36.24 326.674 35.92 326.994 36.08ZM268.434 112.4C268.594 112.88 268.594 113.92 268.434 115.52C268.274 117.12 268.034 117.92 267.714 117.92C267.394 118.08 267.074 117.44 266.754 116C266.434 114.4 266.114 113.28 265.794 112.64C265.314 110.56 264.674 108 263.874 104.96C263.234 101.92 262.514 98.8 261.714 95.6C261.074 92.4 260.434 89.28 259.794 86.24C259.314 83.2 258.994 80.56 258.834 78.32C258.674 77.2 258.354 75.04 257.874 71.84C257.554 68.48 256.994 64.56 256.194 60.08C255.554 55.44 254.754 50.56 253.794 45.44C252.834 40.32 251.794 35.36 250.674 30.56C249.714 25.76 248.674 21.52 247.554 17.84C246.594 14 245.554 11.2 244.434 9.43999C243.474 8.15999 243.234 7.35999 243.714 7.03999C244.034 6.72 244.434 6.8 244.914 7.27999C245.394 7.75999 245.794 8.15999 246.114 8.47999C248.354 10.4 250.434 13.12 252.354 16.64C254.434 20.16 256.274 24 257.874 28.16C259.634 32.16 261.074 36.24 262.194 40.4C263.314 44.56 264.114 48.32 264.594 51.68C265.874 61.28 266.754 71.52 267.234 82.4C267.874 93.12 268.274 103.12 268.434 112.4ZM320.994 79.52C321.474 79.68 321.554 80.4 321.234 81.68C320.914 82.96 320.674 83.84 320.514 84.32C319.874 86.24 319.074 88.56 318.114 91.28C317.314 93.84 316.354 96.56 315.234 99.44C314.274 102.16 313.234 104.8 312.114 107.36C311.154 109.92 310.194 112.08 309.234 113.84C308.594 115.12 307.314 118.32 305.394 123.44C303.634 128.56 301.714 134.4 299.634 140.96C297.554 147.36 295.554 153.84 293.634 160.4C291.874 166.8 290.754 172 290.274 176C290.114 177.12 289.874 177.68 289.554 177.68C289.074 177.84 288.434 177.52 287.634 176.72C286.834 175.76 285.714 174.48 284.274 172.88C282.834 171.12 281.634 169.36 280.674 167.6C279.874 166 278.914 163.84 277.794 161.12C276.834 158.4 275.954 155.76 275.154 153.2C274.354 150.48 273.794 148.16 273.474 146.24C273.154 144.16 273.234 143.04 273.714 142.88C273.874 142.88 274.114 143.28 274.434 144.08C274.914 144.72 275.394 145.6 275.874 146.72C276.354 147.68 276.754 148.64 277.074 149.6C277.554 150.56 277.954 151.2 278.274 151.52C279.234 153.6 280.114 155.6 280.914 157.52C281.714 159.28 282.514 161.2 283.314 163.28C284.114 165.52 284.994 167.44 285.954 169.04C287.074 170.48 287.714 171.04 287.874 170.72C287.874 170.72 287.874 170.32 287.874 169.52C287.874 168.56 287.794 167.6 287.634 166.64C287.474 165.52 287.314 164.4 287.154 163.28C287.154 162.16 287.154 161.36 287.154 160.88C287.154 154.8 287.634 149.36 288.594 144.56C289.714 139.6 291.074 135.12 292.674 131.12C296.034 122.96 299.954 114.72 304.434 106.4C309.074 97.92 313.554 90 317.874 82.64C318.194 82.32 318.674 81.76 319.314 80.96C320.114 80 320.674 79.52 320.994 79.52ZM251.634 113.6C250.034 104 248.834 94.24 248.034 84.32C247.234 74.4 246.434 64.72 245.634 55.28C244.834 45.84 243.714 36.8 242.274 28.16C240.994 19.52 239.074 11.6 236.514 4.4C236.354 4.07999 236.194 3.83999 236.034 3.67999C236.034 3.35999 236.194 3.03999 236.514 2.71999C236.674 2.55999 236.914 2.71999 237.234 3.19998C237.554 3.67999 237.794 4.07999 237.954 4.4C242.274 11.12 245.474 18.88 247.554 27.68C249.794 36.32 251.474 45.52 252.594 55.28C253.714 64.88 254.594 74.72 255.234 84.8C256.034 94.88 257.234 104.72 258.834 114.32C259.794 120.4 261.154 126.56 262.914 132.8C264.834 139.04 267.074 145.12 269.634 151.04C272.194 156.8 275.074 162.32 278.274 167.6C281.474 172.88 284.994 177.52 288.834 181.52C288.994 181.68 288.994 181.84 288.834 182C288.674 182.32 288.274 182.32 287.634 182C282.354 178.64 277.714 174.56 273.714 169.76C269.714 164.8 266.274 159.36 263.394 153.44C260.514 147.36 258.114 140.96 256.194 134.24C254.274 127.52 252.754 120.64 251.634 113.6ZM487.093 10.16C486.773 9.67999 486.293 8.95999 485.653 7.99999C485.173 6.87999 485.093 6.15999 485.413 5.83999C485.733 5.51999 486.213 5.59999 486.853 6.07999C487.653 6.55999 488.133 6.87999 488.293 7.03999C491.173 9.11999 493.813 12 496.213 15.68C498.773 19.36 501.013 23.44 502.933 27.92C505.013 32.24 506.853 36.8 508.453 41.6C510.053 46.4 511.333 50.96 512.293 55.28C514.693 65.84 516.693 76.24 518.293 86.48C520.053 96.72 520.933 107.28 520.933 118.16C520.933 118.48 520.933 119.44 520.933 121.04C521.093 122.64 520.853 123.6 520.213 123.92C519.733 123.6 519.173 122.8 518.533 121.52C518.053 120.24 517.733 119.36 517.573 118.88C515.653 112.96 513.893 106.24 512.293 98.72C510.853 91.04 509.493 84.08 508.213 77.84C507.253 73.04 506.373 68.48 505.573 64.16C504.773 59.68 503.813 55.36 502.693 51.2C501.733 47.04 500.533 42.88 499.093 38.72C497.813 34.4 496.213 29.92 494.293 25.28C493.973 24.64 493.413 23.52 492.613 21.92C491.973 20.32 491.253 18.72 490.453 17.12C489.653 15.52 488.933 14.08 488.293 12.8C487.653 11.36 487.253 10.48 487.093 10.16ZM544.693 188C542.933 187.04 541.733 186.4 541.093 186.08C540.453 185.92 539.253 185.28 537.493 184.16C533.653 181.92 530.133 179.04 526.933 175.52C523.733 171.84 520.853 167.84 518.293 163.52C515.733 159.2 513.413 154.64 511.333 149.84C509.413 144.88 507.733 140 506.293 135.2C503.093 137.28 499.253 138.56 494.773 139.04C490.453 139.36 486.453 139.52 482.773 139.52C478.133 139.52 473.493 139.36 468.853 139.04C464.373 138.72 459.813 138.56 455.173 138.56C450.693 146.88 446.453 154.96 442.453 162.8C438.613 170.48 435.573 177.68 433.333 184.4C433.333 184.56 433.253 184.88 433.093 185.36C432.933 186 432.693 186.32 432.373 186.32C431.893 186.32 431.653 185.76 431.653 184.64C431.653 183.52 431.653 182.8 431.653 182.48C431.653 176.08 433.173 168.96 436.213 161.12C439.413 153.12 442.933 145.28 446.773 137.6L443.173 137.36C442.213 139.6 440.853 142.72 439.092 146.72C437.493 150.72 435.893 154.88 434.293 159.2C432.853 163.52 431.493 167.68 430.213 171.68C429.093 175.68 428.533 178.88 428.533 181.28C428.533 181.76 428.293 182 427.813 182C427.173 182 426.693 181.52 426.373 180.56C426.053 179.44 425.733 178.24 425.413 176.96C425.253 175.68 425.093 174.4 424.933 173.12C424.933 171.68 424.933 170.72 424.933 170.24C424.933 164.64 425.653 158.8 427.093 152.72C428.533 146.48 430.453 140.8 432.853 135.68L429.733 135.2C428.293 138.72 426.933 142.24 425.653 145.76C424.373 149.12 423.253 152.64 422.293 156.32C422.293 156.64 422.213 157.04 422.053 157.52C421.893 158 421.653 158.16 421.333 158C421.013 157.36 420.773 156.64 420.613 155.84C420.613 154.88 420.613 154.08 420.613 153.44C420.613 146.72 421.813 140.24 424.213 134C425.013 132.4 425.813 131.6 426.613 131.6C429.973 130.64 433.333 130.08 436.693 129.92C440.213 129.76 443.813 129.68 447.493 129.68C455.493 129.68 463.413 130.32 471.253 131.6C479.093 132.72 486.933 133.28 494.773 133.28C498.613 133.28 502.133 132.96 505.333 132.32L504.853 128.48C503.093 128.96 501.173 129.28 499.093 129.44C497.173 129.6 495.333 129.68 493.573 129.68C487.333 129.68 480.853 129.04 474.133 127.76C467.573 126.48 461.253 124.96 455.173 123.2C454.853 122.88 454.213 122.64 453.253 122.48C452.293 122.16 451.813 121.76 451.813 121.28C451.813 120.96 452.293 120.72 453.253 120.56C454.213 120.24 454.853 120.08 455.173 120.08C457.413 119.92 459.573 119.84 461.653 119.84C463.893 119.68 466.133 119.6 468.373 119.6C472.053 119.6 475.733 119.68 479.413 119.84C483.093 119.84 486.853 119.84 490.693 119.84C492.613 119.84 494.613 119.84 496.693 119.84C498.773 119.84 500.773 119.76 502.693 119.6L502.213 116.96H499.093C491.413 116.96 483.733 116.24 476.053 114.8C468.533 113.36 460.933 112.64 453.253 112.64C446.693 112.64 440.853 113.44 435.733 115.04C430.773 116.64 426.453 118.48 422.773 120.56C419.253 122.64 416.373 124.72 414.133 126.8C411.893 128.88 410.293 130.4 409.333 131.36C409.013 131.52 408.853 131.6 408.853 131.6C408.693 131.6 408.613 131.44 408.613 131.12C408.613 130.96 408.693 130.8 408.853 130.64C411.733 125.04 415.253 120.4 419.413 116.72C423.573 112.88 428.693 110 434.773 108.08C440.853 95.12 447.093 82.24 453.493 69.44C460.053 56.64 466.933 44 474.133 31.52C474.293 31.2 474.613 30.72 475.093 30.08C475.573 29.28 476.053 28.88 476.533 28.88C476.693 29.04 476.773 29.2 476.773 29.36V29.84C476.773 31.12 476.693 32.08 476.533 32.72C473.493 45.68 469.013 58.16 463.093 70.16C457.173 82.16 451.093 94 444.853 105.68L449.413 105.44C449.893 104.48 451.093 102.4 453.013 99.2C455.093 96 457.253 92.72 459.493 89.36C461.893 85.84 464.053 82.72 465.973 80C467.893 77.12 469.093 75.68 469.573 75.68L469.813 76.4C469.813 77.2 469.333 78.96 468.373 81.68C467.413 84.4 466.293 87.36 465.013 90.56C463.733 93.76 462.453 96.8 461.173 99.68C460.053 102.4 459.253 104.32 458.773 105.44C459.733 105.44 460.693 105.52 461.653 105.68C462.613 105.68 463.573 105.68 464.533 105.68C467.413 99.92 470.453 93.92 473.653 87.68C477.013 81.28 479.893 74.8 482.293 68.24C484.693 61.68 486.293 55.04 487.093 48.32C488.053 41.6 487.573 34.96 485.653 28.4C485.653 29.2 485.413 30.8 484.933 33.2C484.613 35.6 484.133 38.16 483.493 40.88C482.853 43.44 482.213 45.76 481.573 47.84C480.933 49.76 480.293 50.72 479.653 50.72C479.173 50.72 478.933 50.4 478.933 49.76C479.093 49.12 479.173 48.72 479.173 48.56C479.173 44.4 479.413 40.32 479.893 36.32C480.533 32.16 480.853 28 480.853 23.84C480.853 18.24 479.973 12.8 478.213 7.51999C478.213 7.35999 477.973 6.71999 477.493 5.6C477.013 4.31999 477.173 3.67999 477.973 3.67999C478.293 3.67999 478.853 4.07999 479.653 4.87999C481.253 6.47999 482.773 8.63999 484.213 11.36C485.813 14.08 487.253 17.04 488.533 20.24C489.813 23.28 491.013 26.32 492.133 29.36C493.253 32.4 494.133 34.96 494.773 37.04C496.853 43.92 498.533 50.88 499.813 57.92C501.253 64.8 502.453 71.76 503.413 78.8C504.533 85.68 505.653 92.64 506.773 99.68C507.893 106.72 509.173 113.68 510.613 120.56C512.053 127.28 513.733 133.84 515.653 140.24C517.733 146.64 520.213 152.72 523.093 158.48C525.973 164.24 529.253 169.6 532.933 174.56C536.773 179.36 541.173 183.6 546.133 187.28C546.933 188.08 547.173 188.56 546.853 188.72C546.693 189.04 545.973 188.8 544.693 188ZM544.213 167.6C544.373 168.56 544.293 169.04 543.973 169.04C543.653 168.88 543.253 168.56 542.773 168.08C542.453 167.6 542.053 167.04 541.573 166.4C541.253 165.76 541.093 165.36 541.093 165.2C537.253 158.16 534.213 151.04 531.973 143.84C529.733 136.48 527.973 129.12 526.693 121.76C525.413 114.24 524.293 106.72 523.333 99.2C522.533 91.52 521.493 83.76 520.213 75.92C519.093 67.92 517.573 59.84 515.653 51.68C513.733 43.52 511.013 35.2 507.493 26.72C507.333 26.4 507.093 25.84 506.773 25.04C506.453 24.24 506.453 23.76 506.773 23.6C507.093 23.6 507.493 23.84 507.973 24.32L508.933 25.28C512.453 29.44 515.573 34.96 518.293 41.84C521.013 48.72 523.413 56.08 525.493 63.92C527.573 71.76 529.253 79.52 530.532 87.2C531.972 94.88 533.093 101.6 533.893 107.36C535.173 116.48 536.533 126.08 537.973 136.16C539.413 146.24 541.253 155.76 543.493 164.72L544.213 167.6ZM472.933 106.64C477.573 107.12 482.133 107.68 486.613 108.32C491.253 108.96 495.893 109.44 500.533 109.76C498.773 101.28 497.253 92.88 495.973 84.56C494.693 76.24 493.493 67.76 492.373 59.12C490.293 67.44 487.413 75.52 483.733 83.36C480.213 91.2 476.613 98.96 472.933 106.64ZM551.893 185.36C548.693 183.92 545.893 182.56 543.493 181.28C541.093 179.84 539.013 177.92 537.253 175.52C534.533 171.84 532.373 168.16 530.773 164.48C529.333 160.8 528.133 157.36 527.172 154.16C526.853 152.88 526.533 151.44 526.213 149.84C526.053 148.24 526.133 147.44 526.453 147.44C527.093 147.44 527.893 148.48 528.853 150.56C529.813 152.64 530.693 154.4 531.493 155.84C533.893 160.8 536.933 165.84 540.613 170.96C544.293 175.92 548.293 180 552.613 183.2C553.893 184.32 554.293 185.04 553.812 185.36C553.333 185.68 552.693 185.68 551.893 185.36ZM410.053 139.28C410.053 139.28 409.893 139.28 409.573 139.28H409.333C409.333 138.8 409.413 138.32 409.573 137.84C409.733 137.36 409.893 136.88 410.053 136.4C411.333 133.68 412.533 131.68 413.653 130.4C414.933 128.96 416.933 127.44 419.652 125.84C421.253 124.88 423.493 123.92 426.373 122.96C429.253 122 431.573 121.52 433.333 121.52C433.653 121.52 434.053 121.6 434.533 121.76C435.173 121.76 435.492 122 435.492 122.48C435.492 122.96 434.613 123.6 432.853 124.4C431.253 125.2 430.213 125.76 429.733 126.08C423.653 129.76 419.173 132.56 416.293 134.48C413.413 136.4 411.333 138 410.053 139.28ZM604.484 60.08C602.244 68.72 599.444 77.68 596.084 86.96C592.884 96.24 589.524 105.04 586.004 113.36C585.844 113.68 585.444 114.48 584.804 115.76C584.164 116.88 583.684 117.36 583.364 117.2C582.884 117.2 582.644 116.56 582.644 115.28C582.804 113.84 582.964 112.88 583.124 112.4C583.284 110.48 583.604 108.08 584.084 105.2C584.564 102.32 585.044 99.36 585.524 96.32C586.164 93.28 586.804 90.32 587.444 87.44C588.244 84.56 588.964 82.08 589.604 80C589.924 79.36 590.404 77.76 591.044 75.2C591.684 72.64 592.324 69.6 592.964 66.08C593.764 62.4 594.564 58.4 595.364 54.08C596.164 49.76 596.884 45.52 597.524 41.36L594.644 40.64C593.844 46.24 592.644 52 591.044 57.92C589.604 63.68 587.924 69.52 586.004 75.44C584.244 81.2 582.484 87.12 580.724 93.2C578.964 99.12 577.364 105.04 575.924 110.96C574.644 116.56 573.684 122.4 573.044 128.48C572.404 134.56 572.164 140.72 572.324 146.96C572.484 153.04 573.204 159.04 574.484 164.96C575.764 170.72 577.684 176.08 580.244 181.04C580.724 182.16 580.884 182.72 580.724 182.72C580.404 182.72 580.164 182.64 580.004 182.48L579.524 182C575.044 176.72 571.684 171.04 569.444 164.96C567.364 158.72 566.004 152.32 565.364 145.76C564.884 139.2 565.044 132.56 565.844 125.84C566.644 119.12 567.764 112.56 569.204 106.16C571.924 94.32 575.124 82.96 578.804 72.08C582.484 61.04 585.604 50.24 588.164 39.68C578.564 38.08 569.524 36.64 561.044 35.36C552.724 33.92 544.964 33.92 537.764 35.36C537.284 35.36 537.044 35.28 537.044 35.12C537.044 34.8 537.124 34.64 537.284 34.64C537.604 34.48 537.844 34.32 538.004 34.16C543.444 30.96 549.204 29.2 555.284 28.88C561.524 28.56 567.924 28.88 574.484 29.84C581.204 30.64 588.004 31.76 594.884 33.2C601.924 34.48 608.964 35.2 616.004 35.36C620.324 35.52 624.804 35.2 629.444 34.4C634.244 33.44 638.804 32.08 643.124 30.32C647.604 28.4 651.604 25.92 655.124 22.88C658.804 19.84 661.764 16.24 664.004 12.08C664.324 11.28 664.644 10.88 664.964 10.88V11.6V12.08C663.204 18.16 660.484 23.2 656.804 27.2C653.124 31.04 648.884 34.16 644.084 36.56C639.444 38.96 634.404 40.64 628.964 41.6C623.684 42.4 618.484 42.72 613.364 42.56C614.164 47.52 614.164 53.28 613.364 59.84C612.724 66.4 611.684 73.04 610.244 79.76C608.804 86.48 607.284 92.88 605.684 98.96C604.084 104.88 602.804 109.68 601.844 113.36C599.924 121.04 597.684 128.88 595.124 136.88C592.564 144.88 590.244 151.92 588.164 158C587.844 158.8 587.444 159.52 586.964 160.16C586.644 160.8 586.324 161.04 586.004 160.88C585.684 160.72 585.524 160.32 585.524 159.68C585.684 158.88 585.764 158.08 585.764 157.28C586.244 145.28 588.004 133.28 591.044 121.28C594.084 109.28 597.364 97.2 600.884 85.04C602.804 78.32 604.644 71.52 606.404 64.64C608.324 57.76 609.684 50.4 610.484 42.56C609.684 42.4 608.964 42.32 608.324 42.32C607.844 42.32 607.204 42.32 606.404 42.32C606.404 45.52 606.244 48.64 605.924 51.68C605.764 54.72 605.284 57.52 604.484 60.08ZM610.964 8.96C617.204 9.76 623.524 10.4 629.924 10.88C636.324 11.36 641.844 11.6 646.484 11.6C648.084 11.6 648.884 11.84 648.884 12.32C648.884 12.96 648.084 13.52 646.484 14C638.324 17.2 629.684 18.64 620.564 18.32C611.604 18 602.484 17.12 593.204 15.68C587.604 14.88 581.844 14.08 575.924 13.28C570.004 12.48 563.604 12.48 556.724 13.28C556.084 13.44 555.764 13.36 555.764 13.04C555.764 12.72 555.924 12.48 556.244 12.32C556.564 12.16 556.884 11.92 557.204 11.6C560.244 9.35999 564.164 7.91999 568.964 7.27999C573.764 6.47999 578.724 6.15999 583.844 6.31999C589.124 6.31999 594.164 6.63999 598.964 7.27999C603.764 7.91999 607.764 8.47999 610.964 8.96ZM574.964 16.4C581.684 17.36 588.484 18.56 595.364 20C602.404 21.44 609.204 23.04 615.764 24.8C616.084 25.12 616.724 25.44 617.684 25.76C618.804 25.92 619.364 26.24 619.364 26.72C619.364 27.04 618.884 27.28 617.924 27.44C616.964 27.6 616.244 27.84 615.764 28.16C614.324 28.48 612.484 28.64 610.244 28.64C608.164 28.64 605.924 28.64 603.524 28.64C601.284 28.48 599.044 28.32 596.804 28.16C594.564 28 592.644 27.76 591.044 27.44C589.924 27.28 587.124 26.96 582.644 26.48C578.324 26 573.524 25.68 568.244 25.52C562.964 25.36 557.844 25.44 552.884 25.76C548.084 25.92 544.644 26.56 542.564 27.68C541.924 28 541.524 28.16 541.364 28.16H541.124C541.124 27.52 541.444 26.88 542.084 26.24C543.684 24.16 545.844 22.4 548.564 20.96C551.444 19.52 554.404 18.4 557.444 17.6C560.484 16.8 563.524 16.32 566.564 16.16C569.764 16 572.564 16.08 574.964 16.4ZM582.884 164.96C583.364 167.68 583.924 170.4 584.564 173.12C585.364 175.84 586.324 178.48 587.444 181.04C588.084 182.32 588.164 182.96 587.684 182.96C587.364 182.96 586.884 182.8 586.244 182.48C585.924 182.32 585.684 182.08 585.524 181.76C583.444 179.36 581.764 177.12 580.484 175.04C579.364 172.96 578.404 169.6 577.604 164.96C577.284 163.2 577.044 160.96 576.884 158.24C576.884 155.52 576.964 152.88 577.124 150.32C577.284 147.76 577.524 145.6 577.844 143.84C578.164 142.08 578.644 141.2 579.284 141.2C579.444 141.2 579.604 141.6 579.764 142.4C580.084 143.2 580.324 144.16 580.484 145.28C580.644 146.24 580.804 147.28 580.964 148.4C581.124 149.36 581.204 150 581.204 150.32C581.524 153.04 581.764 155.6 581.924 158C582.244 160.4 582.564 162.72 582.884 164.96ZM652.484 14.72C656.004 11.68 658.964 8.39999 661.364 4.87999C661.684 4.23999 662.004 3.91999 662.324 3.91999C662.484 3.91999 662.564 4.47999 662.564 5.6C662.564 6.24 662.484 6.8 662.324 7.27999C661.684 9.99999 660.964 12.16 660.164 13.76C659.364 15.36 657.444 17.28 654.404 19.52C653.284 20.48 651.764 21.44 649.844 22.4C647.924 23.2 646.084 23.92 644.324 24.56C642.564 25.2 640.964 25.6 639.524 25.76C638.244 25.76 637.524 25.44 637.364 24.8C637.364 24.64 637.604 24.4 638.084 24.08C638.564 23.6 639.124 23.12 639.764 22.64C640.564 22.16 641.284 21.76 641.924 21.44C642.564 20.96 643.044 20.64 643.364 20.48C644.964 19.68 646.484 18.8 647.924 17.84C649.524 16.88 651.044 15.84 652.484 14.72ZM729.56 126.32C722.68 125.68 715.56 124.8 708.2 123.68C701 122.4 694.2 120.88 687.8 119.12C687.48 118.96 686.76 118.72 685.64 118.4C684.52 118.08 683.96 117.76 683.96 117.44C683.96 116.96 684.52 116.64 685.64 116.48C686.76 116.32 687.48 116.24 687.8 116.24C691 115.92 695.08 115.76 700.04 115.76C705 115.6 709.08 115.76 712.28 116.24C715.32 116.72 718.84 117.12 722.84 117.44C727 117.76 731.16 117.84 735.32 117.68C739.48 117.52 743.48 117.12 747.32 116.48C751.32 115.84 754.76 114.88 757.64 113.6C758.92 113.12 760.36 112.16 761.96 110.72C763.56 109.28 764.76 107.84 765.56 106.4C760.44 109.76 754.76 111.84 748.52 112.64C742.28 113.44 735.72 113.6 728.84 113.12C722.12 112.64 715.24 111.92 708.2 110.96C701.32 110 694.52 109.36 687.8 109.04C683.48 108.88 679 109.04 674.36 109.52C669.88 110 665.48 110.96 661.16 112.4C657 113.84 653.16 115.76 649.64 118.16C646.12 120.56 643.24 123.52 641 127.04C640.68 127.84 640.6 128 640.76 127.52C640.76 126.88 640.76 126.4 640.76 126.08C642.04 119.68 645 114.88 649.64 111.68C654.44 108.32 659.64 105.76 665.24 104C667.32 95.36 669.72 86.8 672.44 78.32C675.16 69.84 677.64 61.6 679.88 53.6C682.28 45.6 684.2 37.84 685.64 30.32C687.24 22.8 687.96 15.52 687.8 8.47999C687.96 8.15999 687.96 7.83999 687.8 7.51999C687.8 7.19999 687.96 7.03999 688.28 7.03999C688.6 6.87999 688.76 7.12 688.76 7.76C688.92 8.23999 689 8.55999 689 8.71999C691.08 15.76 691.88 23.12 691.4 30.8C690.92 38.32 689.72 46 687.8 53.84C686.04 61.68 683.8 69.68 681.08 77.84C678.52 85.84 676.12 93.92 673.88 102.08L680.12 101.36C680.92 97.68 681.72 93.92 682.52 90.08C683.48 86.24 684.44 82.88 685.4 80C685.72 79.04 686.2 77.12 686.84 74.24C687.64 71.2 688.44 67.6 689.24 63.44C690.04 59.28 690.84 54.8 691.64 50C692.6 45.2 693.32 40.56 693.8 36.08C694.44 31.6 694.76 27.52 694.76 23.84C694.92 20.16 694.76 17.28 694.28 15.2C694.28 13.76 694.36 13.04 694.52 13.04C694.84 13.04 695.16 13.28 695.48 13.76C695.8 14.08 696.04 14.4 696.2 14.72C697.96 17.44 699.24 20.72 700.04 24.56C701 28.4 701.56 32.48 701.72 36.8C702.04 40.96 701.96 45.12 701.48 49.28C701.16 53.44 700.6 57.04 699.8 60.08C697.88 66.8 695.8 73.68 693.56 80.72C691.32 87.76 688.92 94.64 686.36 101.36H690.44H691.64C692.28 98.64 693.08 95.92 694.04 93.2C695 90.48 695.88 87.76 696.68 85.04C698.76 77.52 700.84 69.84 702.92 62C705 54 706.2 45.44 706.52 36.32C706.52 35.52 706.6 35.12 706.76 35.12C707.08 35.12 707.24 35.28 707.24 35.6C707.4 35.92 707.56 36.24 707.72 36.56C709.16 40.08 709.8 44.56 709.64 50C709.64 55.44 709.16 61.2 708.2 67.28C707.24 73.2 705.96 79.28 704.36 85.52C702.92 91.6 701.56 97.12 700.28 102.08C706.2 102.56 711.88 103.2 717.32 104C722.92 104.8 728.52 105.52 734.12 106.16C736.2 97.52 738.52 89.04 741.08 80.72C743.8 72.24 746.28 64.08 748.52 56.24C750.92 48.24 752.84 40.48 754.28 32.96C755.88 25.44 756.6 18.24 756.44 11.36C756.44 10.56 756.6 10.16 756.92 10.16C757.24 10.16 757.48 10.32 757.64 10.64C757.8 10.96 757.88 11.2 757.88 11.36C759.96 18.56 760.68 26.08 760.04 33.92C759.56 41.6 758.36 49.44 756.44 57.44C754.52 65.44 752.2 73.6 749.48 81.92C746.76 90.08 744.28 98.32 742.04 106.64C743 106.96 743.96 107.04 744.92 106.88C746.04 106.72 747.16 106.64 748.28 106.64C748.92 102.64 749.8 98.56 750.92 94.4C752.04 90.08 753.08 86.4 754.04 83.36C754.36 82.4 754.84 80.48 755.48 77.6C756.28 74.56 757.08 70.96 757.88 66.8C758.68 62.64 759.48 58.16 760.28 53.36C761.24 48.56 761.96 43.92 762.44 39.44C763.08 34.8 763.4 30.64 763.4 26.96C763.56 23.28 763.4 20.4 762.92 18.32C762.6 17.2 762.68 16.56 763.16 16.4C763.48 16.24 763.8 16.4 764.12 16.88C764.44 17.2 764.68 17.52 764.84 17.84C766.6 20.56 767.96 23.84 768.92 27.68C769.88 31.52 770.44 35.52 770.6 39.68C770.92 43.84 770.84 48 770.36 52.16C770.04 56.32 769.48 59.92 768.68 62.96C766.76 70.16 764.52 77.44 761.96 84.8C759.4 92.16 756.76 99.44 754.04 106.64L760.04 105.68C760.84 102.96 761.72 100.16 762.68 97.28C763.64 94.24 764.52 91.28 765.32 88.4C767.56 80.72 769.64 72.96 771.56 65.12C773.64 57.12 774.84 48.64 775.16 39.68C775.16 38.88 775.16 38.48 775.16 38.48C775.16 38.32 775.24 38.24 775.4 38.24C775.72 38.24 776.04 38.72 776.36 39.68C778.28 44 779 49.6 778.52 56.48C778.04 63.36 777.08 70.56 775.64 78.08C774.2 85.44 772.52 92.64 770.6 99.68C768.68 106.56 767.24 112.08 766.28 116.24C764.52 123.92 762.28 131.84 759.56 140C756.84 148.16 754.44 155.28 752.36 161.36C751.88 163.28 751.24 164.24 750.44 164.24C750.12 164.08 749.96 163.6 749.96 162.8C750.12 162 750.2 161.2 750.2 160.4C750.52 153.52 751.16 146.72 752.12 140C753.24 133.12 754.68 126.08 756.44 118.88C752.44 121.6 747.88 123.6 742.76 124.88C737.64 126.16 733.24 126.64 729.56 126.32ZM681.56 157.28C681.88 149.6 682.6 142.08 683.72 134.72C681 134.4 678.28 134.08 675.56 133.76C673 133.28 670.44 132.8 667.88 132.32C667.24 140.96 667.48 149.52 668.6 158C669.72 166.32 672.12 174 675.8 181.04C676.12 181.68 676.28 182 676.28 182C676.28 182.8 675.8 182.8 674.84 182C668.44 174.96 664.28 167.12 662.36 158.48C660.6 149.68 660.04 140.64 660.68 131.36L655.4 130.4C654.6 130.4 653.88 130.24 653.24 129.92C652.76 129.6 652.52 129.28 652.52 128.96C652.52 128.64 652.84 128.4 653.48 128.24C654.12 128.08 654.68 127.92 655.16 127.76C664.28 125.84 673.4 125.12 682.52 125.6C691.64 126.08 700.92 126.88 710.36 128C716.28 128.64 722.28 129.2 728.36 129.68C734.44 130.16 740.84 129.6 747.56 128C748.2 127.84 748.6 127.92 748.76 128.24C748.76 128.4 748.44 128.8 747.8 129.44C745.08 132 741.4 133.76 736.76 134.72C735.96 143.36 736.04 151.92 737 160.4C737.96 168.72 740.36 175.92 744.2 182C744.68 182.48 744.68 182.72 744.2 182.72C744.04 182.72 743.88 182.64 743.72 182.48C743.56 182.32 743.32 182.16 743 182C739.96 179.44 737.48 176.48 735.56 173.12C733.8 169.6 732.44 165.84 731.48 161.84C730.52 157.84 729.88 153.68 729.56 149.36C729.4 144.88 729.4 140.4 729.56 135.92C726.2 136.24 722.76 136.4 719.24 136.4C715.72 136.4 712.28 136.32 708.92 136.16C705.56 136 702.36 135.84 699.32 135.68C696.28 135.36 693.64 135.12 691.4 134.96C690.12 139.28 688.76 143.44 687.32 147.44C685.88 151.28 684.68 154.8 683.72 158C683.4 158.8 683.08 159.6 682.76 160.4C682.44 161.04 682.12 161.2 681.8 160.88C681.48 160.88 681.32 160.48 681.32 159.68C681.48 158.88 681.56 158.08 681.56 157.28ZM747.08 168.08C747.88 171.12 748.6 173.84 749.24 176.24C749.88 178.64 750.76 180.56 751.88 182C752.04 182.16 752.2 182.32 752.36 182.48C752.52 182.8 752.44 183.04 752.12 183.2C751.48 183.2 750.6 182.8 749.48 182C747.72 180.72 746.12 179.28 744.68 177.68C743.4 176.08 742.36 172.88 741.56 168.08C741.24 166.16 741.08 163.84 741.08 161.12C741.08 158.4 741.16 155.84 741.32 153.44C741.48 150.88 741.72 148.72 742.04 146.96C742.52 145.2 743 144.4 743.48 144.56C743.8 144.56 744.04 144.96 744.2 145.76C744.36 146.56 744.52 147.44 744.68 148.4C744.84 149.36 744.92 150.32 744.92 151.28C745.08 152.24 745.16 152.96 745.16 153.44C745.48 156.16 745.72 158.72 745.88 161.12C746.2 163.52 746.6 165.84 747.08 168.08ZM678.44 164.96C679.4 170.72 680.92 176.08 683 181.04C683.32 182.16 683.4 182.72 683.24 182.72C682.44 182.72 681.56 182.24 680.6 181.28C678.52 178.88 676.92 176.72 675.8 174.8C674.84 172.88 673.96 169.6 673.16 164.96C672.84 163.2 672.6 160.96 672.44 158.24C672.44 155.52 672.52 152.88 672.68 150.32C672.84 147.76 673.08 145.6 673.4 143.84C673.88 142.08 674.36 141.2 674.84 141.2C675 141.2 675.16 141.6 675.32 142.4C675.64 143.2 675.88 144.16 676.04 145.28C676.2 146.24 676.36 147.28 676.52 148.4C676.68 149.36 676.76 150 676.76 150.32C677.08 153.04 677.32 155.6 677.48 158C677.8 160.4 678.12 162.72 678.44 164.96ZM649.16 126.32C647.08 127.44 645.64 128.4 644.84 129.2C644.04 130 643.08 131.04 641.96 132.32C641.32 133.12 641 133.36 641 133.04C641 132.72 641 132.32 641 131.84C641.64 129.44 642.44 127.52 643.4 126.08C644.36 124.64 645.96 123.04 648.2 121.28C649.32 120.32 650.84 119.52 652.76 118.88C654.84 118.24 656.84 117.84 658.76 117.68C660.68 117.36 662.36 117.28 663.8 117.44C665.24 117.44 665.96 117.68 665.96 118.16C665.96 118.64 665 119.28 663.08 120.08C661.32 120.88 660.2 121.44 659.72 121.76C657.8 122.56 655.96 123.36 654.2 124.16C652.44 124.8 650.76 125.52 649.16 126.32ZM801.389 182C801.389 182.8 801.389 183.2 801.389 183.2C800.749 183.2 800.269 182.8 799.949 182C797.709 176.24 796.749 170.08 797.069 163.52C797.389 156.96 798.509 150.24 800.429 143.36C802.349 136.48 804.909 129.6 808.109 122.72C811.469 115.68 815.069 108.88 818.909 102.32C814.589 99.44 810.989 95.84 808.109 91.52C805.389 87.04 802.989 82.32 800.909 77.36C798.349 71.44 796.189 65.44 794.429 59.36C792.669 53.28 790.989 47.36 789.389 41.6C787.789 35.84 786.109 30.4 784.349 25.28C782.589 20 780.509 15.28 778.109 11.12C778.109 10.48 778.189 10.24 778.349 10.4C783.309 13.92 787.149 18.24 789.869 23.36C792.749 28.48 795.069 34 796.829 39.92C798.749 45.84 800.509 52 802.109 58.4C803.709 64.64 805.789 70.64 808.349 76.4C810.109 80.4 812.029 84.16 814.109 87.68C816.349 91.04 819.069 94.24 822.269 97.28L825.389 92.24C824.269 90.8 823.389 89.52 822.749 88.4C822.269 87.12 822.269 86.32 822.749 86C823.069 86 823.629 86.32 824.429 86.96C825.229 87.44 826.109 88.24 827.069 89.36C828.669 87.6 829.869 85.84 830.669 84.08C827.789 78.8 825.229 73.28 822.989 67.52C820.909 61.76 818.909 55.84 816.989 49.76C815.389 44.64 813.709 39.68 811.949 34.88C810.189 30.08 807.709 24.88 804.509 19.28C804.349 18.96 804.109 18.72 803.789 18.56C803.629 18.24 803.629 18 803.789 17.84C804.109 17.52 804.669 17.6 805.469 18.08C808.829 19.52 811.789 22.24 814.349 26.24C817.069 30.08 819.469 34.32 821.549 38.96C823.629 43.6 825.389 48.24 826.829 52.88C828.429 57.36 829.709 60.96 830.669 63.68L835.709 76.88C844.669 63.76 853.229 50.96 861.389 38.48C869.709 26 875.949 13.76 880.109 1.75999C880.429 0.95999 880.589 0.55999 880.589 0.55999C880.909 0.239994 881.069 0.479996 881.069 1.27999C881.229 1.92 881.309 2.32 881.309 2.47999C880.509 11.6 878.109 20.56 874.109 29.36C870.109 38.16 865.309 46.96 859.709 55.76C854.269 64.4 848.349 73.12 841.949 81.92C835.549 90.72 829.629 99.6 824.189 108.56C820.669 114.32 817.389 120.4 814.349 126.8C811.309 133.2 808.669 139.68 806.429 146.24C804.349 152.64 802.829 158.96 801.869 165.2C800.909 171.28 800.749 176.88 801.389 182ZM848.909 119.12C846.509 122.96 843.949 126.96 841.229 131.12C838.509 135.12 835.709 139.04 832.829 142.88C830.109 146.72 827.469 150.4 824.909 153.92C822.349 157.44 820.029 160.64 817.949 163.52C817.149 164.64 816.429 165.52 815.789 166.16C815.149 166.64 814.749 166.8 814.589 166.64C814.269 166.64 814.269 166.16 814.589 165.2C814.909 164.24 815.229 163.36 815.549 162.56C820.669 149.44 827.069 136.8 834.749 124.64C842.589 112.48 850.589 100.24 858.749 87.92C863.709 80.24 868.749 72.56 873.869 64.88C878.989 57.04 883.469 48.08 887.309 38C887.629 37.2 887.709 36.72 887.549 36.56C887.549 36.4 887.709 36.32 888.029 36.32C888.349 36.48 888.509 36.8 888.509 37.28C888.509 37.76 888.509 38.24 888.509 38.72C888.509 42.24 887.789 46.24 886.349 50.72C884.909 55.2 882.989 60 880.589 65.12C878.189 70.08 875.549 75.2 872.669 80.48C869.789 85.6 866.829 90.56 863.789 95.36C860.909 100.16 858.109 104.64 855.389 108.8C852.829 112.8 850.669 116.24 848.909 119.12ZM871.709 61.76C866.109 70.4 859.949 79.36 853.229 88.64C846.509 97.92 839.869 106.48 833.309 114.32C832.989 114.64 832.269 115.44 831.149 116.72C830.029 117.84 829.229 118.24 828.749 117.92C828.429 117.6 828.509 116.8 828.989 115.52C829.629 114.08 830.109 113.12 830.429 112.64C831.549 110.4 832.909 107.84 834.509 104.96C836.109 101.92 837.789 98.88 839.549 95.84C841.309 92.8 843.069 89.84 844.829 86.96C846.749 84.08 848.429 81.6 849.869 79.52C850.509 78.56 851.789 76.56 853.709 73.52C855.629 70.32 857.789 66.64 860.189 62.48C862.589 58.16 865.149 53.52 867.869 48.56C870.589 43.6 873.069 38.8 875.309 34.16C877.549 29.36 879.469 24.96 881.069 20.96C882.669 16.8 883.549 13.52 883.709 11.12C884.029 9.51999 884.269 8.71999 884.429 8.71999C884.749 8.71999 884.989 9.11999 885.149 9.92C885.309 10.56 885.469 11.04 885.629 11.36C886.269 14.72 886.269 18.64 885.629 23.12C884.989 27.6 883.949 32.24 882.509 37.04C881.229 41.68 879.549 46.24 877.469 50.72C875.549 55.04 873.629 58.72 871.709 61.76ZM808.589 34.4C810.349 40.32 812.029 46.64 813.629 53.36C815.389 59.92 816.829 66.32 817.949 72.56C818.109 72.88 818.109 73.44 817.949 74.24C817.949 74.88 817.789 75.36 817.469 75.68C817.149 75.84 816.669 75.6 816.029 74.96C815.389 74.32 814.989 73.84 814.829 73.52C814.029 72.4 813.149 70.96 812.189 69.2C811.229 67.44 810.349 65.6 809.549 63.68C808.749 61.76 807.949 59.84 807.149 57.92C806.509 56 805.949 54.32 805.469 52.88C804.989 51.28 803.949 48.56 802.349 44.72C800.909 40.72 799.149 36.56 797.069 32.24C795.149 27.92 793.069 23.84 790.829 20C788.749 16.16 786.829 13.52 785.069 12.08C784.109 11.12 783.789 10.64 784.109 10.64C784.269 10.48 784.589 10.48 785.069 10.64C785.549 10.8 785.949 10.96 786.269 11.12C788.829 11.92 791.309 13.2 793.709 14.96C796.269 16.72 798.509 18.72 800.429 20.96C802.509 23.2 804.189 25.52 805.469 27.92C806.909 30.16 807.949 32.32 808.589 34.4ZM810.029 169.52C809.389 172.56 808.909 175.28 808.589 177.68C808.429 179.92 808.349 181.92 808.349 183.68C808.349 184 808.349 184.4 808.349 184.88C808.349 185.36 808.109 185.6 807.629 185.6C807.309 185.6 806.909 185.36 806.429 184.88C806.109 184.56 805.869 184.16 805.709 183.68C805.389 182.88 805.069 182.08 804.749 181.28C804.429 180.48 804.189 179.6 804.029 178.64C803.869 177.52 803.869 176.16 804.029 174.56C804.189 172.8 804.509 170.64 804.989 168.08C805.469 166 806.189 163.44 807.149 160.4C808.109 157.36 809.149 154.48 810.269 151.76C811.389 148.88 812.429 146.56 813.389 144.8C814.509 143.04 815.389 142.32 816.029 142.64C816.189 142.8 816.189 143.36 816.029 144.32C816.029 145.28 815.869 146.4 815.549 147.68C815.229 148.8 814.909 149.92 814.589 151.04C814.269 152.16 814.029 152.96 813.869 153.44C813.069 156.16 812.349 158.88 811.709 161.6C811.229 164.16 810.669 166.8 810.029 169.52ZM1066.21 26.48C1066.21 29.36 1065.49 32.4 1064.05 35.6C1062.77 38.8 1061.17 41.92 1059.25 44.96C1057.33 48 1055.17 50.8 1052.77 53.36C1050.37 55.76 1048.05 57.76 1045.81 59.36C1039.73 63.84 1033.01 68.16 1025.65 72.32C1018.45 76.32 1011.41 79.68 1004.53 82.4C1004.21 82.56 1003.49 82.88 1002.37 83.36C1001.25 83.68 1000.53 83.68 1000.21 83.36C999.894 83.04 1000.13 82.48 1000.93 81.68C1001.73 80.72 1002.37 80.08 1002.85 79.76C1003.97 78.64 1005.41 77.28 1007.17 75.68C1009.09 74.08 1011.01 72.56 1012.93 71.12C1015.01 69.52 1017.01 68 1018.93 66.56C1021.01 65.12 1022.85 64 1024.45 63.2C1025.57 62.56 1028.05 60.8 1031.89 57.92C1035.89 54.88 1040.13 51.44 1044.61 47.6C1049.09 43.6 1053.25 39.6 1057.09 35.6C1061.09 31.6 1063.57 28.32 1064.53 25.76C1065.17 24.64 1065.65 24.24 1065.97 24.56C1066.13 24.72 1066.21 25.04 1066.21 25.52C1066.21 26 1066.21 26.32 1066.21 26.48ZM961.574 115.52C967.494 116.32 973.254 117.52 978.854 119.12C984.454 120.56 989.654 123.36 994.454 127.52C1000.05 132.32 1005.81 137.68 1011.73 143.6C1017.65 149.36 1023.09 155.04 1028.05 160.64C1028.37 160.96 1028.85 161.6 1029.49 162.56C1030.13 163.36 1030.29 164 1029.97 164.48C1029.81 164.8 1029.17 164.8 1028.05 164.48C1027.09 164 1026.45 163.6 1026.13 163.28C1024.69 162.48 1022.93 161.44 1020.85 160.16C1018.93 158.72 1016.93 157.2 1014.85 155.6C1012.77 154 1010.77 152.48 1008.85 151.04C1006.93 149.44 1005.33 148 1004.05 146.72C1003.25 145.92 1001.09 144.16 997.574 141.44C994.214 138.56 990.214 135.6 985.574 132.56C980.934 129.36 976.054 126.4 970.934 123.68C965.974 120.96 961.494 119.12 957.494 118.16C956.214 117.84 955.574 117.04 955.574 115.76C955.734 114.48 955.894 113.36 956.054 112.4C956.374 110.48 956.774 108.08 957.254 105.2C957.894 102.32 958.454 99.36 958.934 96.32C959.574 93.28 960.214 90.32 960.854 87.44C961.494 84.56 962.134 82.08 962.774 80C963.254 78.56 964.134 74.96 965.414 69.2C966.694 63.44 967.974 57.04 969.254 50C970.534 42.96 971.494 36.16 972.134 29.6C972.774 23.04 972.694 18.24 971.894 15.2C971.574 13.76 971.654 13.04 972.134 13.04C972.454 13.04 972.694 13.28 972.854 13.76C973.014 14.08 973.254 14.4 973.574 14.72C975.334 17.44 976.694 20.72 977.654 24.56C978.614 28.4 979.174 32.48 979.334 36.8C979.654 40.96 979.574 45.12 979.094 49.28C978.774 53.44 978.214 57.04 977.414 60.08C975.654 66.8 973.654 73.52 971.414 80.24C969.174 86.8 966.774 93.44 964.214 100.16C965.974 97.6 967.654 95.2 969.254 92.96C970.854 90.56 972.294 88.32 973.574 86.24L973.814 85.04C975.414 77.36 977.334 69.6 979.574 61.76C981.974 53.92 983.334 45.44 983.654 36.32C983.974 35.52 984.214 35.12 984.374 35.12C984.534 35.12 984.694 35.28 984.854 35.6C985.014 35.92 985.174 36.24 985.334 36.56C987.094 40.88 987.734 46.56 987.254 53.6C986.774 60.48 985.814 67.68 984.374 75.2C986.294 73.6 988.134 72.08 989.894 70.64C991.814 69.2 993.894 67.76 996.134 66.32C1002.21 62.16 1008.45 58.16 1014.85 54.32C1021.25 50.48 1027.41 46.56 1033.33 42.56C1039.41 38.56 1045.01 34.48 1050.13 30.32C1055.25 26.16 1059.65 21.6 1063.33 16.64C1063.81 16.16 1064.13 16.08 1064.29 16.4C1064.45 16.4 1064.45 16.64 1064.29 17.12C1064.29 17.44 1064.29 17.68 1064.29 17.84C1061.89 24.4 1058.21 30.24 1053.25 35.36C1048.45 40.32 1042.93 44.96 1036.69 49.28C1030.61 53.6 1024.21 57.68 1017.49 61.52C1010.77 65.36 1004.37 69.44 998.294 73.76C990.774 78.88 983.734 84.96 977.174 92C970.614 99.04 965.414 106.88 961.574 115.52ZM973.094 114.08C972.294 114.08 971.174 114.08 969.734 114.08C968.454 113.92 967.254 113.92 966.134 114.08C966.774 112.8 967.494 111.52 968.294 110.24C969.254 108.96 970.134 107.68 970.934 106.4C971.894 105.12 973.014 103.76 974.294 102.32C975.734 100.72 977.094 99.36 978.374 98.24C979.814 96.96 981.014 96.08 981.974 95.6C983.094 94.96 983.814 94.96 984.134 95.6C984.294 95.76 984.134 96.16 983.654 96.8C983.334 97.44 982.854 98.24 982.214 99.2C981.574 100 980.934 100.8 980.294 101.6C979.814 102.24 979.494 102.72 979.334 103.04C977.574 105.28 976.294 107.28 975.494 109.04C974.694 110.64 973.894 112.32 973.094 114.08ZM1065.01 179.12C1064.69 179.44 1064.21 179.52 1063.57 179.36C1063.09 179.04 1062.53 178.72 1061.89 178.4C1057.25 176.32 1052.85 173.76 1048.69 170.72C1044.69 167.68 1040.77 164.4 1036.93 160.88C1033.09 157.36 1029.25 153.76 1025.41 150.08C1021.73 146.24 1017.97 142.48 1014.13 138.8C1011.41 136.24 1008.53 133.6 1005.49 130.88C1002.45 128.16 999.334 125.68 996.134 123.44C992.934 121.04 989.574 119.04 986.054 117.44C982.694 115.68 979.254 114.56 975.734 114.08C977.814 111.04 981.174 107.6 985.814 103.76C990.454 99.92 995.494 96.16 1000.93 92.48C1006.37 88.8 1011.73 85.28 1017.01 81.92C1022.29 78.56 1026.61 75.84 1029.97 73.76C1035.57 70.24 1041.17 66.48 1046.77 62.48C1052.53 58.48 1057.81 53.6 1062.61 47.84C1063.09 47.2 1063.57 46.96 1064.05 47.12C1064.05 47.44 1063.97 47.76 1063.81 48.08C1063.65 48.24 1063.57 48.48 1063.57 48.8C1062.77 52.8 1060.37 57.04 1056.37 61.52C1052.53 65.84 1048.13 70 1043.17 74C1038.21 78 1033.17 81.76 1028.05 85.28C1022.93 88.64 1018.85 91.36 1015.81 93.44C1012.93 95.36 1009.89 97.2 1006.69 98.96C1003.65 100.72 1000.53 102.48 997.334 104.24C994.134 105.84 991.014 107.36 987.974 108.8C985.094 110.08 982.374 111.28 979.814 112.4C983.974 112.4 988.694 113.68 993.974 116.24C999.414 118.8 1004.77 121.92 1010.05 125.6C1015.33 129.12 1020.21 132.88 1024.69 136.88C1029.17 140.72 1032.61 143.92 1035.01 146.48C1040.13 152.08 1045.17 157.52 1050.13 162.8C1055.25 168.08 1059.73 172.64 1063.57 176.48C1064.85 177.76 1065.33 178.64 1065.01 179.12ZM966.614 8.71999C968.854 16.4 969.574 24.4 968.774 32.72C967.974 40.88 966.374 49.28 963.974 57.92C961.734 66.56 959.174 75.36 956.294 84.32C953.414 93.28 950.934 102.16 948.854 110.96C947.574 116.56 946.534 122.4 945.734 128.48C945.094 134.56 944.854 140.72 945.014 146.96C945.334 153.04 946.054 159.04 947.174 164.96C948.454 170.72 950.454 176.08 953.174 181.04C953.814 182.32 954.054 182.96 953.894 182.96C953.574 182.96 953.254 182.8 952.934 182.48C952.614 182.16 952.374 182 952.214 182C947.734 176.72 944.454 171.04 942.374 164.96C940.294 158.72 939.014 152.32 938.534 145.76C938.054 139.2 938.214 132.56 939.014 125.84C939.974 119.12 941.174 112.56 942.614 106.16C944.694 97.36 947.094 88.64 949.814 80C952.534 71.2 955.014 62.72 957.254 54.56C959.654 46.24 961.654 38.24 963.254 30.56C964.854 22.88 965.574 15.52 965.414 8.47999C965.414 7.51999 965.494 7.03999 965.654 7.03999C965.814 6.87999 965.974 7.12 966.134 7.76C966.454 8.23999 966.614 8.55999 966.614 8.71999ZM1080.13 186.8C1080.13 187.12 1079.97 187.36 1079.65 187.52C1079.33 187.68 1079.01 187.84 1078.69 188C1072.61 190.24 1066.69 191.2 1060.93 190.88C1055.33 190.72 1049.81 189.76 1044.37 188C1039.09 186.4 1033.97 184.24 1029.01 181.52C1024.21 178.8 1019.65 176.08 1015.33 173.36C1011.01 170.64 1006.85 167.52 1002.85 164C998.854 160.48 994.934 156.88 991.094 153.2C987.254 149.52 983.414 145.92 979.574 142.4C975.894 138.88 972.214 135.76 968.534 133.04L961.094 158C960.774 158.8 960.454 159.52 960.134 160.16C959.974 160.8 959.734 161.04 959.414 160.88C959.094 160.72 958.854 160.32 958.694 159.68C958.694 158.88 958.694 158.08 958.694 157.28C958.854 152.64 959.254 147.92 959.894 143.12C960.534 138.32 961.334 133.52 962.294 128.72C961.334 128.08 960.134 127.36 958.694 126.56C957.254 125.76 955.894 124.96 954.614 124.16C954.294 124 953.894 123.76 953.414 123.44C952.934 122.96 952.774 122.56 952.934 122.24C952.934 122.08 953.334 122 954.134 122C959.894 122.48 965.494 124.4 970.934 127.76C976.534 130.96 982.054 134.88 987.494 139.52C993.094 144 998.694 148.88 1004.29 154.16C1009.89 159.44 1015.73 164.48 1021.81 169.28C1029.49 175.2 1038.29 179.84 1048.21 183.2C1058.13 186.72 1068.21 187.84 1078.45 186.56C1079.57 186.24 1080.13 186.32 1080.13 186.8ZM960.614 182.96C960.294 182.96 959.814 182.8 959.174 182.48C958.854 182.32 958.614 182.08 958.454 181.76C956.374 179.36 954.694 177.12 953.414 175.04C952.294 172.96 951.334 169.6 950.534 164.96C950.214 163.2 949.974 160.96 949.814 158.24C949.814 155.52 949.894 152.88 950.054 150.32C950.214 147.76 950.454 145.6 950.774 143.84C951.254 142.08 951.814 141.2 952.454 141.2C952.614 141.2 952.774 141.6 952.934 142.4C953.254 143.2 953.494 144.16 953.654 145.28C953.814 146.24 953.894 147.28 953.894 148.4C954.054 149.36 954.134 150 954.134 150.32C954.454 153.84 954.694 156.72 954.854 158.96C955.174 161.2 955.494 163.2 955.814 164.96C956.614 170.08 958.214 175.44 960.614 181.04C960.774 181.36 960.854 181.76 960.854 182.24C961.014 182.72 960.934 182.96 960.614 182.96ZM1047.49 178.16C1048.61 178.32 1049.97 178.64 1051.57 179.12C1053.33 179.44 1054.69 179.76 1055.65 180.08C1059.81 181.2 1063.25 182 1065.97 182.48C1068.85 183.12 1072.21 183.52 1076.05 183.68C1076.37 183.68 1076.77 183.68 1077.25 183.68C1077.89 183.68 1078.21 183.84 1078.21 184.16C1078.21 184.8 1077.41 185.2 1075.81 185.36C1073.89 185.68 1072.21 185.84 1070.77 185.84C1069.33 185.84 1067.49 185.76 1065.25 185.6C1063.97 185.44 1062.45 185.2 1060.69 184.88C1058.93 184.56 1057.17 184.08 1055.41 183.44C1053.65 182.96 1051.97 182.48 1050.37 182C1048.93 181.36 1047.89 180.72 1047.25 180.08C1046.61 179.44 1046.37 178.88 1046.53 178.4C1046.53 178.24 1046.85 178.16 1047.49 178.16ZM1097.45 102.08C1096.65 107.68 1096.25 113.12 1096.25 118.4C1096.25 123.68 1096.65 128.64 1097.45 133.28C1098.25 137.92 1099.37 142.16 1100.81 146C1102.41 149.68 1104.41 152.8 1106.81 155.36C1109.85 158.56 1113.77 160.88 1118.57 162.32C1123.53 163.6 1129.05 163.84 1135.13 163.04C1136.73 156.8 1138.57 150.8 1140.65 145.04C1142.89 139.28 1144.97 133.68 1146.89 128.24C1148.97 122.8 1150.73 117.44 1152.17 112.16C1153.61 106.88 1154.33 101.68 1154.33 96.56C1154.33 96.08 1154.41 95.84 1154.57 95.84C1154.73 95.84 1154.89 96.08 1155.05 96.56C1155.37 97.04 1155.53 97.36 1155.53 97.52C1157.45 103.44 1158.01 109.44 1157.21 115.52C1156.57 121.44 1155.21 127.52 1153.13 133.76C1151.21 140 1148.97 146.4 1146.41 152.96C1143.85 159.36 1141.77 166 1140.17 172.88C1139.37 175.92 1138.89 179.44 1138.73 183.44C1138.57 187.6 1138.81 191.76 1139.45 195.92C1140.25 200.24 1141.53 204.48 1143.29 208.64C1145.21 212.8 1147.85 216.48 1151.21 219.68C1151.37 220 1151.61 220.32 1151.93 220.64L1152.17 220.88C1152.17 220.88 1151.93 220.88 1151.45 220.88C1151.29 220.88 1151.13 220.8 1150.97 220.64C1146.65 217.76 1143.05 214.48 1140.17 210.8C1137.45 207.12 1135.37 203.28 1133.93 199.28C1132.65 195.44 1131.85 191.52 1131.53 187.52C1131.37 183.68 1131.61 180.16 1132.25 176.96C1127.45 178.08 1122.65 178.24 1117.85 177.44C1113.21 176.64 1108.89 175.2 1104.89 173.12C1104.09 172.8 1103.21 172.16 1102.25 171.2C1101.45 170.24 1101.13 169.68 1101.29 169.52C1101.29 169.52 1102.49 169.76 1104.89 170.24C1107.45 170.56 1110.25 170.96 1113.29 171.44C1116.49 171.76 1119.61 172.08 1122.65 172.4C1125.85 172.56 1128.17 172.56 1129.61 172.4C1130.09 172.24 1130.57 172.16 1131.05 172.16C1131.69 172 1132.41 171.76 1133.21 171.44C1133.21 170.64 1133.29 169.92 1133.45 169.28C1133.61 168.48 1133.85 167.68 1134.17 166.88C1128.57 168.16 1123.13 168.32 1117.85 167.36C1112.57 166.4 1107.85 164.16 1103.69 160.64C1100.33 157.76 1097.61 154.32 1095.53 150.32C1093.61 146.16 1092.09 141.68 1090.97 136.88C1090.01 132.08 1089.45 127.12 1089.29 122C1089.13 116.72 1089.29 111.52 1089.77 106.4C1090.41 98.24 1092.01 90 1094.57 81.68C1097.13 73.36 1100.49 65.68 1104.65 58.64C1108.97 51.44 1114.01 45.28 1119.77 40.16C1125.69 34.88 1132.33 31.2 1139.69 29.12C1143.05 28.16 1146.65 27.76 1150.49 27.92C1154.33 28.08 1157.93 28.8 1161.29 30.08C1164.65 31.36 1167.53 33.2 1169.93 35.6C1172.49 37.84 1174.09 40.72 1174.73 44.24C1175.53 48.08 1175.21 51.84 1173.77 55.52C1172.33 59.04 1170.33 62.16 1167.77 64.88C1165.21 67.44 1162.33 69.28 1159.13 70.4C1155.93 71.52 1152.89 71.44 1150.01 70.16C1148.89 69.84 1148.65 69.52 1149.29 69.2C1149.61 69.04 1149.85 69.04 1150.01 69.2C1150.17 69.36 1150.41 69.44 1150.73 69.44C1152.65 69.76 1154.81 69.36 1157.21 68.24C1159.61 67.12 1161.77 65.52 1163.69 63.44C1165.77 61.36 1167.37 58.96 1168.49 56.24C1169.77 53.36 1170.17 50.48 1169.69 47.6C1169.21 45.2 1168.17 43.12 1166.57 41.36C1165.13 39.6 1163.21 38.16 1160.81 37.04C1158.41 35.92 1155.69 35.2 1152.65 34.88C1149.77 34.56 1146.65 34.72 1143.29 35.36C1137.37 36.48 1131.85 39.2 1126.73 43.52C1121.61 47.68 1117.05 52.88 1113.05 59.12C1109.05 65.2 1105.69 72 1102.97 79.52C1100.25 87.04 1098.41 94.56 1097.45 102.08ZM1116.41 181.28C1118.65 181.6 1119.93 181.84 1120.25 182C1120.57 182.16 1119.37 182.24 1116.65 182.24C1112.17 182.24 1107.61 181.52 1102.97 180.08C1098.49 178.64 1094.25 176.64 1090.25 174.08C1086.25 171.36 1082.65 168.08 1079.45 164.24C1076.25 160.4 1073.85 156.16 1072.25 151.52C1068.73 141.44 1066.65 131.84 1066.01 122.72C1065.37 113.44 1065.77 104.16 1067.21 94.88C1068.01 89.92 1069.29 84.24 1071.05 77.84C1072.81 71.44 1075.21 64.88 1078.25 58.16C1081.45 51.44 1085.37 44.8 1090.01 38.24C1094.65 31.68 1100.25 25.68 1106.81 20.24C1113.69 14.48 1121.37 10.72 1129.85 8.96C1138.33 7.03999 1146.41 6.71999 1154.09 7.99999C1161.77 9.28 1168.57 12.08 1174.49 16.4C1180.41 20.56 1184.33 25.76 1186.25 32C1186.41 32.32 1186.65 32.96 1186.97 33.92C1187.29 34.88 1187.29 35.44 1186.97 35.6C1186.65 35.76 1186.33 35.44 1186.01 34.64C1185.69 33.84 1185.13 32.96 1184.33 32C1177.61 22.88 1170.01 17.12 1161.53 14.72C1153.05 12.32 1144.65 12.08 1136.33 14C1128.17 15.92 1120.41 19.6 1113.05 25.04C1105.85 30.32 1100.09 36.24 1095.77 42.8C1088.25 53.84 1082.65 65.92 1078.97 79.04C1075.29 92 1073.53 105.2 1073.69 118.64C1073.85 125.2 1074.57 131.84 1075.85 138.56C1077.13 145.28 1079.45 151.84 1082.81 158.24C1086.01 164.48 1090.73 169.68 1096.97 173.84C1103.37 178 1109.85 180.48 1116.41 181.28ZM1082.33 90.32C1083.45 82 1085.37 73.84 1088.09 65.84C1090.81 57.68 1094.41 50.32 1098.89 43.76C1103.53 37.2 1109.21 31.52 1115.93 26.72C1122.65 21.92 1130.57 18.56 1139.69 16.64C1142.73 16 1146.17 15.76 1150.01 15.92C1154.01 15.92 1157.93 16.64 1161.77 18.08C1165.77 19.36 1169.45 21.36 1172.81 24.08C1176.33 26.8 1179.21 30.56 1181.45 35.36C1183.53 40 1184.25 44.64 1183.61 49.28C1183.13 53.76 1181.85 57.84 1179.77 61.52C1177.85 65.04 1175.37 68 1172.33 70.4C1169.45 72.8 1166.57 74.16 1163.69 74.48C1163.21 74.64 1162.57 74.72 1161.77 74.72C1161.13 74.56 1160.81 74.32 1160.81 74C1160.81 73.68 1160.89 73.6 1161.05 73.76C1161.21 73.76 1162.09 73.44 1163.69 72.8C1164.81 72.32 1166.09 71.52 1167.53 70.4C1169.13 69.12 1170.57 67.52 1171.85 65.6C1173.29 63.68 1174.57 61.44 1175.69 58.88C1176.81 56.32 1177.53 53.52 1177.85 50.48C1178.17 47.28 1177.77 44.24 1176.65 41.36C1175.53 38.48 1173.85 35.92 1171.61 33.68C1169.53 31.28 1167.05 29.28 1164.17 27.68C1161.29 26.08 1158.33 25.04 1155.29 24.56C1145.85 23.12 1137.29 24.4 1129.61 28.4C1121.93 32.24 1115.13 37.6 1109.21 44.48C1103.29 51.2 1098.33 58.8 1094.33 67.28C1090.33 75.6 1087.29 83.52 1085.21 91.04C1085.21 91.2 1085.05 91.76 1084.73 92.72C1084.41 93.68 1084.09 94.72 1083.77 95.84C1083.45 96.96 1083.13 98 1082.81 98.96C1082.65 99.76 1082.49 100.16 1082.33 100.16C1082.17 100.16 1082.01 99.76 1081.85 98.96C1081.85 98 1081.85 96.96 1081.85 95.84C1082.01 94.56 1082.09 93.44 1082.09 92.48C1082.25 91.36 1082.33 90.64 1082.33 90.32ZM1164.65 175.04C1163.69 178.56 1162.25 182.96 1160.33 188.24C1158.57 193.68 1156.97 198.64 1155.53 203.12C1155.05 204.4 1154.65 205.04 1154.33 205.04C1153.69 205.04 1153.29 204.72 1153.13 204.08C1153.13 203.6 1153.13 203.2 1153.13 202.88C1152.65 198.56 1152.57 194.4 1152.89 190.4C1153.21 186.56 1153.85 182.72 1154.81 178.88C1155.77 175.04 1156.89 171.2 1158.17 167.36C1159.61 163.52 1161.05 159.44 1162.49 155.12C1164.41 149.52 1166.17 144.08 1167.77 138.8C1169.37 133.36 1170.33 127.28 1170.65 120.56C1170.65 119.76 1170.65 119.36 1170.65 119.36C1170.81 119.2 1171.05 119.12 1171.37 119.12L1172.09 120.56C1173.69 123.92 1174.33 128.08 1174.01 133.04C1173.85 138 1173.21 143.12 1172.09 148.4C1170.97 153.68 1169.61 158.72 1168.01 163.52C1166.57 168.32 1165.45 172.16 1164.65 175.04ZM1165.37 136.88C1163.13 142.96 1160.65 149.28 1157.93 155.84C1155.21 162.4 1152.41 168.72 1149.53 174.8C1149.37 174.96 1149.05 175.52 1148.57 176.48C1148.25 177.28 1147.85 177.6 1147.37 177.44C1147.05 177.28 1146.89 176.8 1146.89 176C1146.89 175.04 1146.89 174.32 1146.89 173.84C1146.89 172.4 1147.05 170.64 1147.37 168.56C1147.69 166.32 1148.09 164.16 1148.57 162.08C1149.05 159.84 1149.53 157.68 1150.01 155.6C1150.65 153.52 1151.29 151.76 1151.93 150.32C1152.25 149.36 1152.97 146.8 1154.09 142.64C1155.21 138.32 1156.33 133.68 1157.45 128.72C1158.57 123.6 1159.45 118.64 1160.09 113.84C1160.73 109.04 1160.73 105.44 1160.09 103.04C1159.77 102.24 1159.77 101.68 1160.09 101.36C1160.41 101.36 1160.65 101.6 1160.81 102.08C1161.13 102.4 1161.45 102.72 1161.77 103.04C1163.21 105.28 1164.33 107.92 1165.13 110.96C1165.93 113.84 1166.41 116.88 1166.57 120.08C1166.89 123.12 1166.89 126.16 1166.57 129.2C1166.41 132.08 1166.01 134.64 1165.37 136.88ZM1151.21 207.68C1153.13 211.68 1155.45 215.44 1158.17 218.96C1158.65 219.44 1158.73 219.84 1158.41 220.16C1157.93 220.48 1157.45 220.48 1156.97 220.16C1156.65 220 1156.41 219.84 1156.25 219.68C1154.01 218.4 1152.17 217.12 1150.73 215.84C1149.29 214.56 1147.85 212.08 1146.41 208.4C1145.93 207.12 1145.45 205.44 1144.97 203.36C1144.65 201.44 1144.41 199.52 1144.25 197.6C1144.09 195.84 1144.01 194.32 1144.01 193.04C1144.17 191.76 1144.49 191.2 1144.97 191.36C1145.77 191.36 1146.41 192.32 1146.89 194.24C1147.53 196.16 1147.93 197.36 1148.09 197.84C1148.73 199.6 1149.21 201.28 1149.53 202.88C1149.85 204.48 1150.41 206.08 1151.21 207.68Z" fill="#FAC302"/>
</svg>
